<?xml version="1.0" encoding="UTF-8" standalone="no"?>
<!-- Created with Inkscape (http://www.inkscape.org/) -->

<svg
   version="1.1"
   id="svg1"
   width="269.70667"
   height="269.72"
   viewBox="0 0 269.70667 269.72"
   sodipodi:docname="logo-cnrs-white.svg"
   inkscape:version="1.4-dev (1:1.4.0-dev+202403210151+2fe0648968)"
   xmlns:inkscape="http://www.inkscape.org/namespaces/inkscape"
   xmlns:sodipodi="http://sodipodi.sourceforge.net/DTD/sodipodi-0.dtd"
   xmlns="http://www.w3.org/2000/svg"
   xmlns:svg="http://www.w3.org/2000/svg">
  <defs
     id="defs1" />
  <sodipodi:namedview
     id="namedview1"
     pagecolor="#ffffff"
     bordercolor="#000000"
     borderopacity="0.25"
     inkscape:showpageshadow="2"
     inkscape:pageopacity="0.0"
     inkscape:pagecheckerboard="0"
     inkscape:deskcolor="#d1d1d1"
     inkscape:zoom="3.0068219"
     inkscape:cx="134.69371"
     inkscape:cy="134.86"
     inkscape:window-width="1920"
     inkscape:window-height="1016"
     inkscape:window-x="0"
     inkscape:window-y="27"
     inkscape:window-maximized="1"
     inkscape:current-layer="g1">
    <inkscape:page
       x="0"
       y="0"
       inkscape:label="1"
       id="page1"
       width="269.70667"
       height="269.72"
       margin="0"
       bleed="0" />
  </sodipodi:namedview>
  <g
     id="g1"
     inkscape:groupmode="layer"
     inkscape:label="1">
    <g
       id="group-R5">
      <path
         id="path2"
         d="m 968.516,2021.13 c -18.188,1.13 -36.262,1.7 -54.219,1.72 C 663.93,2023.14 437.137,1916.5 239.527,1705.28 59.8516,1513.25 -0.53125,1358.71 0.00390625,1172.1 0.28125,1072.27 18.0078,963.27 44.2344,834.441 93.5508,592.18 237.363,358.301 438.789,192.699 593.023,65.9609 765.023,1.21875 946.285,0.0195313 1040.23,-0.609375 1136.63,15.8398 1234.35,49.5703 1549.88,158.469 1851.7,470.289 1968.36,807.82 c 36.92,106.821 54.85,210.76 54.46,309.71 -0.94,241.76 -111.39,453.67 -322.41,605.18 -255.99,183.87 -502.22,284.24 -731.894,298.42"
         style="fill:#ffffff;fill-opacity:1;fill-rule:nonzero;stroke:none"
         transform="matrix(0.13333333,0,0,-0.13333333,0,269.72)" />
      <path
         id="path3"
         d="m 608.262,1008.17 h -69.391 l -0.066,-1.96 c -0.559,-13.472 -8.571,-131.499 -114.176,-131.499 -94.379,0 -142.281,84.578 -142.375,251.419 0.094,166.83 47.996,251.42 142.375,251.42 107.437,0 113.945,-126.12 114.176,-131.48 l 0.066,-1.95 h 69.391 c 6.41,0 12.636,2.63 17.093,7.2 4.278,4.4 6.485,10.08 6.184,16 -1.441,32.73 -18.238,196.02 -207.883,196.02 -153.269,0 -234.273,-116.48 -234.273,-336.86 0,-220.82 81.004,-337.55 234.273,-337.55 182.535,0 205.231,149.129 207.856,194.851 0.441,6.289 -1.715,12.36 -6.133,17.019 -4.438,4.69 -10.707,7.37 -17.117,7.37"
         style="fill:#132746;fill-opacity:1;fill-rule:nonzero;stroke:none"
         transform="matrix(0.13333333,0,0,-0.13333333,0,269.72)" />
      <path
         id="path4"
         d="m 1686.34,1166.23 0.03,-0.02 -59.77,26.06 c -57.47,25.25 -77.85,49.8 -77.85,93.89 0,57.47 42.06,96.1 104.63,96.1 36.99,0 67.35,-7.58 104.4,-45.31 l 2.02,-2.07 31.89,29.16 c 18.47,17.15 13.13,32.59 5.41,42.51 -31.1,36.7 -81.04,56.85 -140.67,56.85 -115.02,0 -198.48,-75.01 -198.48,-178.38 0,-101.65 64.05,-144.14 133.25,-174.9 l 60.97,-27.23 c 61.28,-27.47 90.46,-50.91 90.46,-109.851 0,-80.418 -72.66,-101.848 -115.58,-101.848 -36.95,0 -78.06,7.891 -128.59,65.129 l -1.97,2.25 -33.21,-29.172 c -17.1,-15.027 -17.24,-27.929 -0.59,-49.347 45.74,-58.781 112.78,-71.121 160.99,-71.121 104.22,0 209.75,64.019 209.75,186.371 0,105.909 -58.79,152.919 -147.09,190.929"
         style="fill:#132746;fill-opacity:1;fill-rule:nonzero;stroke:none"
         transform="matrix(0.13333333,0,0,-0.13333333,0,269.72)" />
      <path
         id="path5"
         d="m 1097.11,1270.38 c 0,104.12 -84.35,192.33 -188.516,192.33 -48.981,0 -93.578,-18.68 -127.11,-49.31 v 35.78 h -62.718 c -18.887,0 -26.098,-12.33 -26.098,-26.5 V 815.129 c 0,-17.098 10.426,-26.231 25.805,-26.231 h 62.734 c 0,0 0,477.772 0,477.802 0,62.76 50.918,113.65 113.672,113.65 62.754,0 113.661,-50.89 113.661,-113.65 0,-0.03 0,-477.891 0,-477.891 h 62.32 c 17.29,0 26.25,9.589 26.25,26.14 0,0 0,454.841 0,455.431"
         style="fill:#132746;fill-opacity:1;fill-rule:nonzero;stroke:none"
         transform="matrix(0.13333333,0,0,-0.13333333,0,269.72)" />
      <path
         id="path6"
         d="m 1456.79,1417.29 c 3.27,4.06 5.29,9.17 5.29,14.77 0,10.46 -6.8,19.24 -16.19,22.42 -18.13,6.08 -37.47,9.41 -57.56,9.41 -48.99,0 -93.59,-18.68 -127.1,-49.3 v 35.78 h -62.73 c -18.91,0 -26.13,-12.33 -26.13,-26.51 V 816.309 c 0,-17.098 10.48,-26.227 25.86,-26.227 h 62.71 c 0,0 0,477.778 0,477.798 0,62.76 50.9,113.66 113.68,113.66 16.45,0 32.04,-3.57 46.14,-9.84 l 36.24,45.46 -0.21,0.13"
         style="fill:#132746;fill-opacity:1;fill-rule:nonzero;stroke:none"
         transform="matrix(0.13333333,0,0,-0.13333333,0,269.72)" />
    </g>
  </g>
</svg>
