<?xml version="1.0" encoding="UTF-8" standalone="no"?>
<svg
   version="1.0"
   width="970.000000pt"
   height="145.000000pt"
   viewBox="0 0 970.000000 145.000000"
   preserveAspectRatio="xMidYMid meet"
   id="svg7"
   sodipodi:docname="mimesis.svg"
   inkscape:version="1.4.2 (1:1.4.2+202505120737+ebf0e940d0)"
   xmlns:inkscape="http://www.inkscape.org/namespaces/inkscape"
   xmlns:sodipodi="http://sodipodi.sourceforge.net/DTD/sodipodi-0.dtd"
   xmlns="http://www.w3.org/2000/svg"
   xmlns:svg="http://www.w3.org/2000/svg">
  <defs
     id="defs7" />
  <sodipodi:namedview
     id="namedview7"
     pagecolor="#ffffff"
     bordercolor="#ffffff"
     borderopacity="0.25"
     inkscape:showpageshadow="2"
     inkscape:pageopacity="0.0"
     inkscape:pagecheckerboard="0"
     inkscape:deskcolor="#d1d1d1"
     inkscape:document-units="pt"
     inkscape:zoom="0.68350515"
     inkscape:cx="646.66667"
     inkscape:cy="97.292609"
     inkscape:window-width="1920"
     inkscape:window-height="1011"
     inkscape:window-x="0"
     inkscape:window-y="32"
     inkscape:window-maximized="1"
     inkscape:current-layer="svg7" />
  <path
     d="m 489.21176,18.107553 v 7.5 h 43.28822 43.28823 v -7.5 -7.5 h -43.28823 -43.28822 z"
     id="path7-0"
     style="display:inline;fill:#808080;fill-opacity:1;stroke-width:0.113674" />
  <g
     transform="matrix(0.1,0,0,-0.1,0,145.03958)"
     fill="#ffffff"
     stroke="none"
     id="g7"
     style="display:inline;fill:#ffffff;fill-opacity:1">
    <path
       d="m 6666,1440 c -168,-21 -342,-78 -443,-145 -98,-65 -153,-168 -153,-285 0,-112 47,-193 153,-261 122,-79 258,-107 582,-119 141,-6 268,-16 308,-24 130,-29 227,-89 227,-141 0,-74 -87,-165 -203,-213 -107,-45 -186,-56 -366,-49 -182,6 -277,27 -390,84 -72,37 -97,65 -115,126 -5,15 -19,17 -102,17 h -97 l 7,-47 c 24,-178 209,-307 525,-367 95,-18 248,-21 371,-6 243,30 447,146 522,298 28,58 33,77 33,142 0,64 -4,83 -29,128 -39,70 -92,116 -181,159 -115,54 -224,72 -505,83 -290,11 -400,33 -492,96 -48,34 -61,66 -49,127 16,85 97,144 263,189 73,20 106,23 263,22 197,0 259,-11 370,-63 74,-34 130,-82 156,-132 l 19,-39 93,7 c 50,3 94,7 96,9 1,1 -7,32 -19,69 -49,148 -225,274 -448,320 -92,20 -300,27 -396,15 z"
       id="path1"
       style="fill:#ffffff;fill-opacity:1" />
    <path
       d="m 8826,1440 c -168,-21 -342,-78 -443,-145 -98,-65 -153,-168 -153,-285 0,-112 47,-193 153,-261 122,-79 258,-107 582,-119 141,-6 268,-16 308,-24 130,-29 227,-89 227,-141 0,-74 -87,-165 -203,-213 -107,-45 -186,-56 -366,-49 -182,6 -277,27 -390,84 -72,37 -97,65 -115,126 -5,15 -19,17 -102,17 h -97 l 7,-47 c 24,-178 209,-307 525,-367 95,-18 248,-21 371,-6 243,30 447,146 522,298 28,58 33,77 33,142 0,64 -4,83 -29,128 -39,70 -92,116 -181,159 -115,54 -224,72 -505,83 -290,11 -400,33 -492,96 -48,34 -61,66 -49,127 16,85 97,144 263,189 73,20 106,23 263,22 197,0 259,-11 370,-63 74,-34 130,-82 156,-132 l 19,-39 93,7 c 50,3 94,7 96,9 1,1 -7,32 -19,69 -49,148 -225,274 -448,320 -92,20 -300,27 -396,15 z"
       id="path2"
       style="fill:#ffffff;fill-opacity:1" />
    <path
       d="M 0,725 V 40 h 95 95 l 2,501 3,501 359,-446 C 751,351 917,146 924,141 c 8,-6 121,128 376,446 l 365,454 3,-500 2,-501 h 95 95 v 685 685 h -82 -83 L 1321,935 C 1116,673 944,458 940,455 936,452 762,666 554,930 L 176,1410 H 88 0 Z"
       id="path3"
       style="fill:#ffffff;fill-opacity:1" />
    <path
       d="M 2150,725 V 40 h 95 95 v 685 685 h -95 -95 z"
       id="path4"
       style="fill:#ffffff;fill-opacity:1" />
    <path
       d="M 2610,725 V 40 h 95 95 l 2,501 3,501 359,-446 C 3361,351 3539.8127,132.28101 3539.8127,132.28101 3539.8127,132.28101 3655,269 3910,587 l 365,454 3,-500 2,-501 h 95 95 v 685 685 h -82 -83 L 3931,935 C 3726,673 3554,458 3550,455 c -4,-3 -178,211 -386,475 l -378,480 h -88 -88 z"
       id="path5"
       style="fill:#ffffff;fill-opacity:1"
       sodipodi:nodetypes="cccccccccccccccccccsccccc" />
    <path
       d="M 7770,725 V 40 h 95 95 v 685 685 h -95 -95 z"
       id="path6"
       style="fill:#ffffff;fill-opacity:1" />
    <path
       d="m 4990,735 v -75 h 335 335 v 75 75 h -335 -335 z"
       id="path7"
       style="fill:#ffffff;fill-opacity:1" />
  </g>
  <path
     d="m 489.21176,133.81639 v 7.5 h 43.28822 43.28823 v -7.5 -7.5 h -43.28823 -43.28822 z"
     id="path7-0-9"
     style="display:inline;fill:#808080;fill-opacity:1;stroke-width:0.113674" />
</svg>
