<?xml version="1.0" encoding="UTF-8" standalone="no"?>
<!-- Created with Inkscape (http://www.inkscape.org/) -->

<svg
   version="1.1"
   id="svg371"
   width="151.18668"
   height="93.333336"
   viewBox="0 0 151.18668 93.333336"
   sodipodi:docname="logo-irma.svg"
   inkscape:version="1.2.2 (732a01da63, 2022-12-09, custom)"
   xmlns:inkscape="http://www.inkscape.org/namespaces/inkscape"
   xmlns:sodipodi="http://sodipodi.sourceforge.net/DTD/sodipodi-0.dtd"
   xmlns="http://www.w3.org/2000/svg"
   xmlns:svg="http://www.w3.org/2000/svg">
  <defs
     id="defs375" />
  <sodipodi:namedview
     id="namedview373"
     pagecolor="#ffffff"
     bordercolor="#666666"
     borderopacity="1.0"
     inkscape:showpageshadow="2"
     inkscape:pageopacity="0.0"
     inkscape:pagecheckerboard="0"
     inkscape:deskcolor="#d1d1d1"
     showgrid="false"
     inkscape:zoom="9.1071426"
     inkscape:cx="74.776473"
     inkscape:cy="46.72157"
     inkscape:window-width="1850"
     inkscape:window-height="1016"
     inkscape:window-x="70"
     inkscape:window-y="27"
     inkscape:window-maximized="1"
     inkscape:current-layer="g379">
    <inkscape:page
       x="0"
       y="0"
       id="page377"
       width="151.18668"
       height="93.333336" />
  </sodipodi:namedview>
  <g
     id="g379"
     inkscape:groupmode="layer"
     inkscape:label="Page 1"
     transform="matrix(1.3333333,0,0,1.3333333,0,2e-6)">
    <g
       id="g381">
      <path
         d="m 6.23,6.363 h 4.688 V 40.675 H 6.23 Z"
         style="fill:#ffffff;fill-opacity:1;fill-rule:nonzero;stroke:none"
         id="path383" />
      <path
         d="m 32.043,10.281 c -2.961,0.012 -5.125,0.442 -6.492,1.293 -1.367,0.852 -2.047,2.235 -2.035,4.156 0.007,2.329 0.656,3.946 1.937,4.844 1.281,0.903 3.324,1.344 6.129,1.332 1.063,-0.004 2.152,-0.086 3.27,-0.25 L 34.805,10.504 C 33.43,10.352 32.512,10.277 32.043,10.281 Z M 15.438,40.727 25.336,24.879 c -1.824,-0.41 -3.406,-1.477 -4.742,-3.199 -1.332,-1.719 -2.008,-3.657 -2.016,-5.813 -0.031,-6.558 4.078,-9.855 12.32,-9.894 1.032,-0.004 2.676,0.047 4.93,0.152 2.258,0.109 3.473,0.16 3.645,0.16 l 0.152,34.336 -4.687,0.02 -0.067,-14.985 c -2.262,0.168 -3.918,0.254 -4.961,0.258 l -9.098,14.793 -5.374,0.02"
         style="fill:#ffffff;fill-opacity:1;fill-rule:nonzero;stroke:none"
         id="path385" />
      <path
         d="m 72.59,40.676 -4.094,-22 -7.469,22.5 H 59.84 l -7.719,-22.5 -4.031,22 H 43.652 L 50.09,6.363 h 2.125 l 8.219,25.063 7.531,-25.063 h 2.125 l 6.937,34.313 H 72.59"
         style="fill:#ffffff;fill-opacity:1;fill-rule:nonzero;stroke:none"
         id="path387" />
      <path
         d="m 91.738,14.863 -5.32,15.125 H 96.617 Z M 103.336,48.008 97.961,33.426 H 85.176 l -2.531,7.25 h -5.25 L 91.332,5.863 h 1.25 l 15.754,42.481 -5,-0.336"
         style="fill:#ffffff;fill-opacity:1;fill-rule:nonzero;stroke:none"
         id="path389" />
      <path
         d="m 6.355,44.344 h 99.957 v 4 H 6.355 Z"
         style="fill:#ffffff;fill-opacity:1;fill-rule:nonzero;stroke:none"
         id="path391" />
      <path
         d="m 108.367,48.344 -2.41,-0.012 v -0.223 l 2.41,0.235"
         style="fill:#ffffff;fill-opacity:1;fill-rule:nonzero;stroke:none"
         id="path393" />
      <text
         xml:space="preserve"
         transform="translate(9.05703,56.8523)"
         style="font-variant:normal;font-weight:bold;font-size:8px;font-family:'Nimbus Sans';-inkscape-font-specification:NimbusSans-Bold;writing-mode:lr-tb;fill:#ffffff;fill-opacity:1;fill-rule:nonzero;stroke:none"
         id="text399"><tspan
           x="0 2.9200001 8.5039997 13.648 17.007999 19.927999 23.288 28.872 32.231998 35.144001 40.728001 45.872002 48.792 55.264 60.408001 65.552002 71.136002 76.288002 80.096001 85.239998 90.823997"
           y="0"
           sodipodi:role="line"
           id="tspan395">Institut de Recherche</tspan><tspan
           x="-3.4351039 3.924896 9.0688963 12.428896 18.012896 23.156897 30.964895 36.108894 39.468895 42.388897 47.972897 53.556896 58.700897 61.620895 67.796898 72.940895 78.084892 83.6689 88.812897 93.956894"
           y="9.6007757"
           sodipodi:role="line"
           id="tspan397">Mathématique Avancée</tspan></text>
    </g>
  </g>
</svg>
