<?xml version="1.0" encoding="UTF-8" standalone="no"?>
<!-- Created with Inkscape (http://www.inkscape.org/) -->

<svg
   version="1.1"
   id="svg198"
   width="912"
   height="385.33334"
   viewBox="0 0 912 385.33334"
   sodipodi:docname="logo-unistra.svg"
   inkscape:version="1.2.2 (732a01da63, 2022-12-09, custom)"
   xmlns:inkscape="http://www.inkscape.org/namespaces/inkscape"
   xmlns:sodipodi="http://sodipodi.sourceforge.net/DTD/sodipodi-0.dtd"
   xmlns="http://www.w3.org/2000/svg"
   xmlns:svg="http://www.w3.org/2000/svg">
  <defs
     id="defs202">
    <clipPath
       clipPathUnits="userSpaceOnUse"
       id="clipPath216">
      <path
         d="M 0,0 H 6839.72 V 2887.94 H 0 Z"
         id="path214" />
    </clipPath>
  </defs>
  <sodipodi:namedview
     id="namedview200"
     pagecolor="#ffffff"
     bordercolor="#666666"
     borderopacity="1.0"
     inkscape:showpageshadow="2"
     inkscape:pageopacity="0.0"
     inkscape:pagecheckerboard="0"
     inkscape:deskcolor="#d1d1d1"
     showgrid="false"
     inkscape:zoom="1.3092105"
     inkscape:cx="456"
     inkscape:cy="192.86432"
     inkscape:window-width="1850"
     inkscape:window-height="1016"
     inkscape:window-x="70"
     inkscape:window-y="27"
     inkscape:window-maximized="1"
     inkscape:current-layer="g206">
    <inkscape:page
       x="0"
       y="0"
       id="page204"
       width="912"
       height="385.33334" />
  </sodipodi:namedview>
  <g
     id="g206"
     inkscape:groupmode="layer"
     inkscape:label="Page 1"
     transform="matrix(1.3333333,0,0,-1.3333333,0,385.33333)">
    <g
       id="g208"
       transform="scale(0.1)">
      <g
         id="g210">
        <g
           id="g212"
           clip-path="url(#clipPath216)">
          <path
             d="M 877.547,26.6484 H 6813.09 V 1443.97 H 877.547 V 26.6484"
             style="fill:#ffffff;fill-opacity:1;fill-rule:nonzero;stroke:none"
             id="path218" />
          <path
             d="M 877.547,26.6484 H 6813.09 V 1443.97 H 877.547 Z"
             style="fill:none;stroke:#5043a3;stroke-width:25;stroke-linecap:butt;stroke-linejoin:miter;stroke-miterlimit:4;stroke-dasharray:none;stroke-opacity:1"
             id="path220" />
          <path
             d="m 1683.71,664.961 v 430.999 h 66 V 501.961 h -51 l -13.01,44 c -13.34,-18 -29.66,-31.672 -49,-41 -19.34,-9.332 -41,-14 -65,-14 -47.34,0 -83.84,14.328 -109.49,43 -25.68,28.66 -38.5,67.66 -38.5,117 v 115 c 0,50 13.5,89.16 40.49,117.5 27.01,28.328 64.83,42.5 113.51,42.5 12,0 23.82,-1.172 35.49,-3.5 11.66,-2.34 23.83,-5.84 36.51,-10.5 l -10,-50 c -12,2.66 -22,4.5 -30,5.5 -8.01,1 -15.68,1.5 -23.01,1.5 -31.99,0 -56.17,-8.672 -72.5,-26 -16.34,-17.34 -24.49,-43 -24.49,-77 v -115 c 0,-33.34 7.82,-58.672 23.49,-76 15.66,-17.34 38.5,-26 68.5,-26 32.01,0 57.01,10.328 75,31 18.01,20.648 27.01,49 27.01,85"
             style="fill:#231f20;fill-opacity:1;fill-rule:nonzero;stroke:none"
             id="path222" />
          <path
             d="m 2133.7,736.961 v 25 c 0,35.328 -8.34,62.16 -25,80.5 -16.67,18.328 -40.67,27.5 -72,27.5 -31.34,0 -55.34,-9.172 -72,-27.5 -16.67,-18.34 -25,-45.172 -25,-80.5 v -25 z m -260,-86 v 111 c 0,51.328 14.16,91.5 42.5,120.5 28.33,29 68.5,43.5 120.5,43.5 52,0 92.16,-14.5 120.5,-43.5 28.33,-29 42.5,-69.172 42.5,-120.5 0,-18 -0.17,-33.34 -0.5,-46 -0.34,-12.672 -1.17,-24.672 -2.5,-36 h -257 v -29 c 0,-35.352 8.5,-61.172 25.5,-77.5 17,-16.34 44.16,-24.5 81.5,-24.5 13.33,0 28.83,2.328 46.5,7 17.66,4.648 38.16,11.66 61.5,21 l 25,-55 c -25.34,-11.352 -48.34,-19.34 -69,-24 -20.67,-4.652 -42,-7 -64,-7 -57.34,0 -100.5,13.328 -129.5,40 -29,26.66 -43.5,66.66 -43.5,120"
             style="fill:#231f20;fill-opacity:1;fill-rule:nonzero;stroke:none"
             id="path224" />
          <path
             d="m 2527.69,787.961 c -16,13.328 -27.67,27.66 -35,43 -7.35,15.328 -11,32.66 -11,52 0,41.328 13.15,74.66 39.5,100 26.33,25.329 60.15,37.999 101.5,37.999 25.33,0 48.65,-4.34 70,-13 21.32,-8.671 48,-25.671 80,-50.999 19.33,-15.34 36.66,-26.172 52,-32.5 15.33,-6.34 32.32,-9.5 50.99,-9.5 21.33,0 37.34,7.66 48.01,23 10.66,15.328 17.66,39.328 21,71.999 h 49 v -94.999 h 84 v -56 h -84 v -230 c 0,-26 4.49,-45 13.5,-57 9,-12 23.49,-18 43.49,-18 3.33,0 7.34,0.16 12.01,0.5 4.65,0.328 9.32,0.828 14,1.5 l 6,-59 c -5.35,-0.652 -11.18,-1.152 -17.5,-1.5 -6.34,-0.332 -12.17,-0.5 -17.5,-0.5 -40,0 -70,11.16 -90,33.5 -20,22.328 -30,55.828 -30,100.5 v 230 h -38 c -30,0 -55.18,3.66 -75.5,11 -20.35,7.328 -43.17,21 -68.5,41 -25.35,19.328 -46.5,32.66 -63.5,40 -17,7.328 -34.5,11 -52.5,11 -25.34,0 -45.34,-6.672 -60,-20 -14.67,-13.34 -22,-31.34 -22,-54 0,-12 2.5,-23 7.5,-33 5,-10 12.83,-19.34 23.5,-28 4,-3.34 11,-8 21,-14 10,-6 23.33,-13.34 40,-22 32,-16.672 54.83,-29.34 68.5,-38 13.66,-8.672 25.5,-16.672 35.5,-24 17.33,-14.672 30.15,-30.172 38.5,-46.5 8.33,-16.34 12.5,-35.5 12.5,-57.5 0.65,-42.672 -14.35,-75.672 -45,-99 -30.68,-23.34 -73.67,-35 -129,-35 -22.67,0 -45.67,2.348 -69,7 -23.34,4.66 -48.34,11.66 -75,21 l 21,57 c 26,-9.34 48.65,-15.84 68,-19.5 19.33,-3.672 39.33,-5.5 60,-5.5 34.65,0 60.65,6.16 78,18.5 17.33,12.328 25.66,30.5 25,54.5 0,12.66 -3.17,24.148 -9.5,34.5 -6.35,10.328 -16.17,20.5 -29.5,30.5 -3.35,2.66 -10.68,7.328 -22,14 -11.35,6.66 -26.67,15.328 -46,26 -37.34,21.328 -60.67,35 -70,41 -9.35,6 -17.34,12 -24,18"
             style="fill:#231f20;fill-opacity:1;fill-rule:nonzero;stroke:none"
             id="path226" />
          <path
             d="m 3234.68,914.961 15,-51 c 12.65,20 28.65,35.328 48,46 19.32,10.66 40.65,16 63.99,16 12.66,0 25.16,-1.34 37.5,-4 12.33,-2.672 23.51,-6.672 33.51,-12 l -27.01,-58 c -8.67,4 -17.5,7 -26.5,9 -8.99,2 -18.16,3 -27.5,3 -30.66,0 -55.34,-10.84 -73.99,-32.5 -18.68,-21.672 -28,-51.172 -28,-88.5 v -241 h -66.01 v 413 h 51.01"
             style="fill:#231f20;fill-opacity:1;fill-rule:nonzero;stroke:none"
             id="path228" />
          <path
             d="m 3613.67,548.961 c 33.33,0 60.33,9.148 81.01,27.5 20.65,18.328 30.99,43.828 30.99,76.5 v 52 c -70.67,-1.34 -119.17,-8.34 -145.49,-21 -26.35,-12.672 -39.51,-34.672 -39.51,-66 0,-22 6.51,-39 19.51,-51 12.99,-12 30.83,-18 53.49,-18 z m -88,293 -22,54 c 27.34,12 51.33,20 72,24 20.66,4 43.66,6 69.01,6 46.65,0 82.82,-13 108.49,-39 25.66,-26 38.5,-62.34 38.5,-109 v -276 h -51 l -12.99,45 c -16.67,-19.34 -34.68,-33.5 -54.01,-42.5 -19.34,-9 -40.67,-13.5 -63.99,-13.5 -43.35,0 -76.68,11.16 -100,33.5 -23.35,22.328 -35,53.5 -35,93.5 0,48 19.49,82.828 58.49,104.5 39.01,21.66 103.16,32.828 192.5,33.5 v 22 c 0,30 -7.34,52.5 -22,67.5 -14.67,15 -37,22.5 -67,22.5 -17.34,0 -34.67,-2 -51.99,-6 -17.35,-4 -37,-10.672 -59.01,-20"
             style="fill:#231f20;fill-opacity:1;fill-rule:nonzero;stroke:none"
             id="path230" />
          <path
             d="m 3931.67,734.961 c -14,10.66 -24,22.328 -30,35 -6.01,12.66 -9,27.66 -9,45 0,32.66 13.15,59.328 39.5,80 26.33,20.66 59.15,31 98.49,31 24.01,0 47.66,-2.672 71.01,-8 23.32,-5.34 45,-13 65,-23 l -26.01,-55 c -20.67,10 -39.66,17.16 -57,21.5 -17.34,4.328 -34.67,6.5 -51.99,6.5 -22.68,0 -40.51,-4.672 -53.51,-14 -12.99,-9.34 -19.5,-22 -19.5,-38 0,-10.672 2.5,-19.84 7.5,-27.5 5,-7.672 13.83,-15.172 26.51,-22.5 6.66,-4 17.15,-9.5 31.5,-16.5 14.33,-7 23.15,-11.172 26.49,-12.5 46.66,-22.672 78.51,-43.852 95.5,-63.5 17,-19.672 25.51,-43.5 25.51,-71.5 0,-34 -13.51,-61 -40.51,-81 -26.99,-20 -62.84,-30 -107.5,-30 -21.34,0 -43,2.168 -65,6.5 -21.99,4.34 -45.66,11.5 -70.99,21.5 l 20.99,56 c 22,-8.672 42.34,-15 61.01,-19 18.65,-4 36.33,-6 53,-6 27.99,0 48.82,4.328 62.5,13 13.65,8.66 20.49,22 20.49,40 0,16.66 -5.84,30.5 -17.5,41.5 -11.67,11 -36.49,25.828 -74.5,44.5 -33.34,16.648 -53.99,27.328 -61.99,32 -8.01,4.648 -14.68,9.328 -20,14"
             style="fill:#231f20;fill-opacity:1;fill-rule:nonzero;stroke:none"
             id="path232" />
          <path
             d="m 4277.66,501.961 v 593.999 h 66 V 664.961 c 0,-36 8.83,-64.352 26.5,-85 17.65,-20.672 41.82,-31 72.5,-31 31.32,0 55,8.66 71,26 16,17.328 24,42.66 24,76 v 115 c 0,34 -7.5,59.66 -22.5,77 -15,17.328 -37.17,26 -66.5,26 -8.67,0 -17.85,-1 -27.5,-3 -9.68,-2 -18.5,-5 -26.5,-9 l -23,44 c 13.33,8 27.32,14.16 42,18.5 14.65,4.328 29.33,6.5 44,6.5 46.66,0 82.65,-14 107.99,-42 25.34,-28 38.01,-67.34 38.01,-118 v -115 c 0,-48 -13.5,-86.672 -40.51,-116 -26.99,-29.352 -63.83,-44 -110.49,-44 -23.34,0 -44.51,4.668 -63.5,14 -19,9.328 -34.84,22.66 -47.5,40 l -13,-43 h -51"
             style="fill:#231f20;fill-opacity:1;fill-rule:nonzero;stroke:none"
             id="path234" />
          <path
             d="m 4979.66,654.961 v 107 c 0,35.328 -8.34,62 -25,80 -16.67,18 -41.35,27 -74.01,27 -32.66,0 -57.34,-9 -73.99,-27 -16.67,-18 -25,-44.672 -25,-80 v -107 c 0,-35.34 8.33,-62 25,-80 16.65,-18 41.33,-27 73.99,-27 32.66,0 57.34,9 74.01,27 16.66,18 25,44.66 25,80 z m -264.01,0 v 107 c 0,51.328 14.34,91.5 43.01,120.5 28.66,29 69.33,43.5 121.99,43.5 52.66,0 93.33,-14.5 122.01,-43.5 28.66,-29 42.99,-69.172 42.99,-120.5 v -107 c 0,-51.34 -14.33,-91.5 -42.99,-120.5 -28.68,-29 -69.35,-43.5 -122.01,-43.5 -52.66,0 -93.33,14.5 -121.99,43.5 -28.67,29 -43.01,69.16 -43.01,120.5"
             style="fill:#231f20;fill-opacity:1;fill-rule:nonzero;stroke:none"
             id="path236" />
          <path
             d="m 5422.64,664.961 v 250 h 66 v -413 h -51 l -13,44 c -13.34,-18 -29.67,-31.672 -48.99,-41 -19.35,-9.332 -41.01,-14 -65,-14 -47.35,0 -83.85,14.328 -109.51,43 -25.67,28.66 -38.5,67.66 -38.5,117 v 264 h 66 v -264 c 0,-33.34 7.83,-58.672 23.5,-76 15.65,-17.34 38.51,-26 68.51,-26 31.99,0 56.99,10.328 75,31 17.99,20.648 26.99,49 26.99,85"
             style="fill:#231f20;fill-opacity:1;fill-rule:nonzero;stroke:none"
             id="path238" />
          <path
             d="m 5675.64,914.961 15,-51 c 12.65,20 28.65,35.328 47.99,46 19.33,10.66 40.66,16 64,16 12.65,0 25.15,-1.34 37.5,-4 12.33,-2.672 23.5,-6.672 33.5,-12 l -27,-58 c -8.67,4 -17.5,7 -26.5,9 -9,2 -18.17,3 -27.5,3 -30.67,0 -55.34,-10.84 -74,-32.5 -18.67,-21.672 -27.99,-51.172 -27.99,-88.5 v -241 h -66.01 v 413 h 51.01"
             style="fill:#231f20;fill-opacity:1;fill-rule:nonzero;stroke:none"
             id="path240" />
          <path
             d="m 5937.63,650.961 v 115 c 0,48 13.5,86.66 40.51,116 26.99,29.328 63.82,44 110.49,44 23.33,0 44.51,-4.672 63.5,-14 19,-9.34 34.83,-22.672 47.5,-40 l 13,43 h 51 v -419 c 0,-60.66 -14.17,-106.16 -42.5,-136.5 -28.35,-30.332 -70.85,-45.5 -127.5,-45.5 -16,0 -32.99,1.668 -51,5 -18,3.34 -37.35,8.34 -58,15 l 21.01,56 c 16.65,-6 32.32,-10.32 46.99,-13 14.66,-2.66 28.33,-4 41,-4 36,0 62.33,9.5 79,28.5 16.66,19 25,50.5 25,94.5 v 256 c 0,36 -8.84,64.328 -26.5,85 -17.67,20.66 -41.84,31 -72.5,31 -31.34,0 -55,-8.672 -71,-26 -16,-17.34 -24,-42.672 -24,-76 v -115 c 0,-33.34 8,-58.84 24,-76.5 16,-17.672 38.66,-26.5 68.01,-26.5 8.65,0 17.14,1 25.49,3 8.33,2 16.83,5 25.5,9 l 23,-44 c -11.34,-8 -24.17,-14.16 -38.5,-18.5 -14.34,-4.332 -29.17,-6.5 -44.5,-6.5 -47.34,0 -84,14.16 -110,42.5 -25.99,28.328 -39,67.5 -39,117.5"
             style="fill:#231f20;fill-opacity:1;fill-rule:nonzero;stroke:none"
             id="path242" />
          <path
             d="M 26.625,1443.97 H 4828.84 V 2861.29 H 26.625 V 1443.97"
             style="fill:#ffffff;fill-opacity:1;fill-rule:nonzero;stroke:none"
             id="path244" />
          <path
             d="M 26.625,1443.97 H 4828.84 V 2861.29 H 26.625 Z"
             style="fill:none;stroke:#5043a3;stroke-width:25;stroke-linecap:butt;stroke-linejoin:miter;stroke-miterlimit:4;stroke-dasharray:none;stroke-opacity:1"
             id="path246" />
          <path
             d="m 4828.84,1443.97 h 340.15 V 2861.29 H 4828.84 V 1443.97"
             style="fill:#ffffff;fill-opacity:1;fill-rule:nonzero;stroke:none"
             id="path248" />
          <path
             d="m 4828.84,1443.97 h 340.15 v 1417.32 h -340.15 z"
             style="fill:none;stroke:#5043a3;stroke-width:25;stroke-linecap:butt;stroke-linejoin:miter;stroke-miterlimit:4;stroke-dasharray:none;stroke-opacity:1"
             id="path250" />
          <path
             d="m 5168.99,1443.97 h 340.17 V 2861.29 H 5168.99 V 1443.97"
             style="fill:#ffffff;fill-opacity:1;fill-rule:nonzero;stroke:none"
             id="path252" />
          <path
             d="m 5168.99,1443.97 h 340.17 v 1417.32 h -340.17 z"
             style="fill:none;stroke:#5043a3;stroke-width:25;stroke-linecap:butt;stroke-linejoin:miter;stroke-miterlimit:4;stroke-dasharray:none;stroke-opacity:1"
             id="path254" />
          <path
             d="m 423.477,26.6484 h 454.07 V 1443.97 H 423.477 V 26.6484"
             style="fill:#ffffff;fill-opacity:1;fill-rule:nonzero;stroke:none"
             id="path256" />
          <path
             d="m 423.477,26.6484 h 454.07 V 1443.97 h -454.07 z"
             style="fill:none;stroke:#5043a3;stroke-width:25;stroke-linecap:butt;stroke-linejoin:miter;stroke-miterlimit:4;stroke-dasharray:none;stroke-opacity:1"
             id="path258" />
          <path
             d="M 26.625,26.6484 H 225.051 V 1443.97 H 26.625 V 26.6484"
             style="fill:#ffffff;fill-opacity:1;fill-rule:nonzero;stroke:none"
             id="path260" />
          <path
             d="M 26.625,26.6484 H 225.051 V 1443.97 H 26.625 Z"
             style="fill:none;stroke:#5043a3;stroke-width:25;stroke-linecap:butt;stroke-linejoin:miter;stroke-miterlimit:4;stroke-dasharray:none;stroke-opacity:1"
             id="path262" />
          <path
             d="M 225.051,26.6484 H 423.477 V 1443.97 H 225.051 V 26.6484"
             style="fill:#ffffff;fill-opacity:1;fill-rule:nonzero;stroke:none"
             id="path264" />
          <path
             d="M 225.051,26.6484 H 423.477 V 1443.97 H 225.051 Z"
             style="fill:none;stroke:#5043a3;stroke-width:25;stroke-linecap:butt;stroke-linejoin:miter;stroke-miterlimit:4;stroke-dasharray:none;stroke-opacity:1"
             id="path266" />
          <path
             d="M 5509.16,1443.97 H 6813.09 V 2861.29 H 5509.16 V 1443.97"
             style="fill:#ffffff;fill-opacity:1;fill-rule:nonzero;stroke:none"
             id="path268" />
          <path
             d="M 5509.16,1443.97 H 6813.09 V 2861.29 H 5509.16 Z"
             style="fill:none;stroke:#5043a3;stroke-width:25;stroke-linecap:butt;stroke-linejoin:miter;stroke-miterlimit:4;stroke-dasharray:none;stroke-opacity:1"
             id="path270" />
          <path
             d="m 863.789,2124.28 v 307 h 120 v -307 c 0,-72 -17.172,-125.99 -51.504,-162 -34.34,-36 -85.84,-53.99 -154.496,-53.99 -69.348,0 -121,17.82 -155,53.49 -34,35.65 -51,89.83 -51,162.5 v 307 h 120 v -307 c 0,-40 6.824,-69.17 20.496,-87.5 13.656,-18.34 35.504,-27.5 65.504,-27.5 30,0 51.824,9.16 65.496,27.5 13.66,18.33 20.504,47.5 20.504,87.5"
             style="fill:#231f20;fill-opacity:1;fill-rule:nonzero;stroke:none"
             id="path272" />
          <path
             d="m 1174.79,2334.28 12.99,-45 c 14.66,18.66 32.33,32.66 53.01,42 20.65,9.33 43.65,14 69,14 50,0 87.82,-16.17 113.5,-48.5 25.65,-32.34 38.49,-78.84 38.49,-139.5 v -238 h -120 v 238 c 0,29.33 -4.84,50.66 -14.49,64 -9.68,13.33 -25.51,20 -47.5,20 -23.35,0 -41.5,-7.17 -54.51,-21.5 -12.99,-14.34 -19.49,-34.5 -19.49,-60.5 v -240 h -120 v 415 h 89"
             style="fill:#231f20;fill-opacity:1;fill-rule:nonzero;stroke:none"
             id="path274" />
          <path
             d="m 1565.78,1919.28 v 415 h 120 v -415 z m 60,463 -89,89 89,89 89,-89 -89,-89"
             style="fill:#231f20;fill-opacity:1;fill-rule:nonzero;stroke:none"
             id="path276" />
          <path
             d="m 1966.78,2036.28 91.99,298 h 124 l -137,-415 h -159 l -136.99,415 h 124 l 93,-298"
             style="fill:#231f20;fill-opacity:1;fill-rule:nonzero;stroke:none"
             id="path278" />
          <path
             d="m 2484.77,2168.28 v 4 c 0,29.33 -5.84,51 -17.5,65 -11.67,14 -29.17,21 -52.5,21 -22.68,0 -39.85,-7.17 -51.51,-21.5 -11.67,-14.35 -17.5,-35.84 -17.5,-64.5 v -4 z m -258,-74 v 65 c 0,59.33 16.33,105.16 48.99,137.5 32.66,32.33 79.01,48.5 139.01,48.5 59.32,0 105.49,-16.67 138.49,-50 33.01,-33.34 49.5,-80.35 49.5,-141 0,-12 -0.16,-22.84 -0.49,-32.5 -0.35,-9.67 -1.18,-22.17 -2.5,-37.5 h -254.01 c 0,-28.67 7,-49.84 21.01,-63.49 13.99,-13.68 35.65,-20.51 65,-20.51 15.32,0 33.33,2.33 53.99,7 20.67,4.66 38.33,10.33 53.01,17 l 38.99,-84 c -23.34,-11.34 -47.16,-19.49 -71.49,-24.49 -24.35,-5 -52.18,-7.5 -83.51,-7.5 -63.34,0 -111.84,15.99 -145.49,47.99 -33.68,32.01 -50.5,78 -50.5,138"
             style="fill:#231f20;fill-opacity:1;fill-rule:nonzero;stroke:none"
             id="path280" />
          <path
             d="m 2778.76,2334.28 20,-67 c 13.33,24.66 30.33,43.33 51.01,56 20.65,12.66 44.32,19 70.99,19 7.34,0 15,-0.5 23,-1.5 8.01,-1 16.33,-2.5 25,-4.5 l -20,-116 c -8.67,1.33 -16,2.33 -21.99,3 -6.01,0.66 -12,1 -18.01,1 -30.66,0 -54.84,-10 -72.5,-30 -17.67,-20 -26.49,-48.67 -26.49,-85.99 v -189.01 h -120 v 415 h 88.99"
             style="fill:#231f20;fill-opacity:1;fill-rule:nonzero;stroke:none"
             id="path282" />
          <path
             d="m 3041.76,2132.28 c -14.01,11.33 -24.5,24.16 -31.51,38.5 -7,14.33 -10.49,30.16 -10.49,47.5 0,38.66 14.82,69.5 44.5,92.5 29.66,23 67.16,34.5 112.5,34.5 26.65,0 53.15,-3 79.5,-9 26.33,-6 50.16,-14.67 71.49,-26 l -42.99,-90 c -18.68,9.33 -36.67,16.33 -54.01,21 -17.34,4.66 -33.34,7 -48,7 -14.66,0 -25.67,-2.34 -32.99,-7 -7.35,-4.67 -11,-11.35 -11,-20 0,-6.67 2.66,-12.17 8,-16.5 5.32,-4.34 23.99,-14.5 55.99,-30.5 53.33,-26 87.66,-48.49 103,-67.5 15.33,-19 23.01,-44.17 23.01,-75.5 0,-37.99 -14.84,-67.99 -44.5,-90 -29.68,-22 -68.18,-32.99 -115.5,-32.99 -27.34,0 -52.85,1.99 -76.5,5.99 -23.68,4.01 -49.85,11.33 -78.5,22 l 35,94 c 21.99,-8.67 42.5,-15 61.49,-19 19.01,-4 37.16,-6 54.51,-6 14.65,0 26.32,2.65 35,8.01 8.65,5.32 12.99,12.32 12.99,20.99 0,7.33 -2.5,13.5 -7.5,18.5 -5,5 -23.83,15.15 -56.49,30.51 -28.67,13.32 -48.35,23.15 -59,29.49 -10.68,6.33 -20,12.83 -28,19.5"
             style="fill:#231f20;fill-opacity:1;fill-rule:nonzero;stroke:none"
             id="path284" />
          <path
             d="m 3393.75,1919.28 v 415 h 120 v -415 z m 60,463 -89,89 89,89 88.99,-89 -88.99,-89"
             style="fill:#231f20;fill-opacity:1;fill-rule:nonzero;stroke:none"
             id="path286" />
          <path
             d="m 3685.74,2431.28 h 91 v -97 h 74 v -97 h -74 v -163 c 0,-19.35 3.83,-33.49 11.5,-42.5 7.66,-9 20.5,-13.49 38.5,-13.49 5.33,0 9.5,0 12.5,0 3.01,0 6.16,0.32 9.5,0.99 l 10,-105 c -7.34,-1.33 -14.5,-2.16 -21.49,-2.5 -7.01,-0.33 -13.85,-0.5 -20.51,-0.5 -51.34,0 -90.84,14.15 -118.5,42.5 -27.67,28.33 -41.5,67.5 -41.5,117.5 v 166 h -74 v 97 h 20 c 28.66,0 48.83,7.5 60.5,22.5 11.66,15 19.16,39.83 22.5,74.5"
             style="fill:#231f20;fill-opacity:1;fill-rule:nonzero;stroke:none"
             id="path288" />
          <path
             d="m 4179.74,2168.28 v 4 c 0,29.33 -5.84,51 -17.5,65 -11.67,14 -29.17,21 -52.5,21 -22.68,0 -39.85,-7.17 -51.51,-21.5 -11.67,-14.35 -17.5,-35.84 -17.5,-64.5 v -4 z m -117.01,216 -47.99,74 150,106 55,-86 z m -140.99,-290 v 65 c 0,59.33 16.33,105.16 48.99,137.5 32.66,32.33 79.01,48.5 139.01,48.5 59.32,0 105.49,-16.67 138.49,-50 33.01,-33.34 49.5,-80.35 49.5,-141 0,-12 -0.16,-22.84 -0.49,-32.5 -0.34,-9.67 -1.17,-22.17 -2.5,-37.5 h -254.01 c 0,-28.67 7,-49.84 21.01,-63.49 13.99,-13.68 35.65,-20.51 65,-20.51 15.32,0 33.33,2.33 53.99,7 20.67,4.66 38.33,10.33 53.01,17 l 38.99,-84 c -23.33,-11.34 -47.16,-19.49 -71.49,-24.49 -24.34,-5 -52.18,-7.5 -83.51,-7.5 -63.33,0 -111.84,15.99 -145.49,47.99 -33.67,32.01 -50.5,78 -50.5,138"
             style="fill:#231f20;fill-opacity:1;fill-rule:nonzero;stroke:none"
             id="path290" />
        </g>
      </g>
    </g>
  </g>
</svg>
