<?xml version="1.0" encoding="UTF-8" standalone="no"?>
<!-- Created with Inkscape (http://www.inkscape.org/) -->

<svg
   width="169.33333mm"
   height="118.53333mm"
   viewBox="0 0 169.33333 118.53333"
   version="1.1"
   id="svg1"
   xml:space="preserve"
   inkscape:version="1.4-dev (1:1.4.0-dev+202403210151+2fe0648968)"
   sodipodi:docname="logo.svg"
   xmlns:inkscape="http://www.inkscape.org/namespaces/inkscape"
   xmlns:sodipodi="http://sodipodi.sourceforge.net/DTD/sodipodi-0.dtd"
   xmlns="http://www.w3.org/2000/svg"
   xmlns:svg="http://www.w3.org/2000/svg"><sodipodi:namedview
     id="namedview1"
     pagecolor="#ffffff"
     bordercolor="#000000"
     borderopacity="0.25"
     inkscape:showpageshadow="2"
     inkscape:pageopacity="0.0"
     inkscape:pagecheckerboard="0"
     inkscape:deskcolor="#d1d1d1"
     inkscape:document-units="mm"
     inkscape:zoom="1.0557596"
     inkscape:cx="328.6733"
     inkscape:cy="289.36511"
     inkscape:window-width="1920"
     inkscape:window-height="1016"
     inkscape:window-x="0"
     inkscape:window-y="27"
     inkscape:window-maximized="1"
     inkscape:current-layer="layer1" /><defs
     id="defs1" /><g
     inkscape:label="Calque 1"
     inkscape:groupmode="layer"
     id="layer1"
     transform="translate(-12.555468,-48.460839)"><path
       d="m 46.422138,48.460839 c -9.3398,0 -16.93334,7.593542 -16.93334,16.933334 v 67.733337 h 16.93334 V 65.394173 H 148.02214 v 67.733337 h 16.93333 V 65.394173 c 0,-9.339792 -7.59354,-16.933334 -16.93333,-16.933334 z m -28.78667,93.133331 c -2.80458,0 -5.08,2.27542 -5.08,5.08 0,11.21833 9.10167,20.32 20.32,20.32 H 161.5688 c 11.21834,0 20.32,-9.10167 20.32,-20.32 0,-2.80458 -2.27541,-5.08 -5.08,-5.08 z"
       id="path1"
       style="stroke-width:0.264583" /><path
       d="m 96.339766,87.720339 c 0.80674,-2.753 3.327796,-4.64884 6.191724,-4.64884 h 20.16852 c 1.78491,0 3.22696,1.44205 3.22696,3.22696 0,1.78491 -1.44205,3.22696 -3.22696,3.22696 H 102.53149 L 91.912773,125.92959 c -0.36303,1.24037 -1.42188,2.13787 -2.70258,2.29921 -1.2807,0.16135 -2.53115,-0.46387 -3.17654,-1.57314 L 75.667033,108.8872 h -4.59842 c -1.78491,0 -3.22696,-1.44205 -3.22696,-3.22696 0,-1.78492 1.44205,-3.22697 3.22696,-3.22697 h 4.59842 c 2.29921,0 4.4169,1.2202 5.57659,3.2068 l 6.57494,11.2742 z m 11.173354,15.660851 c 1.26053,-1.26053 3.30763,-1.26053 4.56817,0 l 4.16479,4.1648 4.17489,-4.17488 c 1.26053,-1.26053 3.30763,-1.26053 4.56816,0 1.26054,1.26053 1.26054,3.30764 0,4.56817 l -4.17488,4.17488 4.17488,4.17488 c 1.26054,1.26054 1.26054,3.30764 0,4.56817 -1.26053,1.26053 -3.30763,1.26053 -4.56816,0 l -4.17489,-4.17488 -4.17488,4.17488 c -1.26053,1.26053 -3.30763,1.26053 -4.56817,0 -1.26053,-1.26053 -1.26053,-3.30763 0,-4.56817 l 4.17488,-4.17488 -4.17488,-4.17488 c -1.26053,-1.26053 -1.26053,-3.30764 0,-4.56817 z"
       id="path1-7"
       style="stroke-width:0.100842" /><path
       d="m 67.838838,72.305516 c -4.549335,0 -8.192183,2.071975 -10.844085,4.538074 -2.635011,2.443579 -4.397316,5.371367 -5.230609,7.381411 -0.185804,0.444797 -0.185804,0.940269 0,1.385072 0.833293,2.010038 2.595598,4.937832 5.230609,7.381405 2.651902,2.466103 6.29475,4.538077 10.844085,4.538077 4.549335,0 8.192182,-2.071974 10.844087,-4.538077 2.635009,-2.449205 4.397316,-5.371367 5.236236,-7.381405 0.185805,-0.444803 0.185805,-0.940275 0,-1.385072 -0.83892,-2.010044 -2.601227,-4.937832 -5.236236,-7.381411 -2.651905,-2.466099 -6.294752,-4.538074 -10.844087,-4.538074 z m -8.107727,12.612018 a 8.107727,8.107727 0 1 1 16.215454,0 8.107727,8.107727 0 1 1 -16.215454,0 z M 67.838838,81.3141 c 0,1.987519 -1.615915,3.603434 -3.603434,3.603434 -0.399756,0 -0.782621,-0.06756 -1.142964,-0.185799 -0.30967,-0.101349 -0.670014,0.09009 -0.658753,0.416647 0.01689,0.388492 0.07319,0.776989 0.180172,1.165487 0.771359,2.882744 3.738563,4.594377 6.62131,3.823019 2.882747,-0.771363 4.594377,-3.738569 3.823017,-6.621314 -0.624969,-2.336599 -2.691314,-3.907476 -4.988503,-4.003188 -0.326561,-0.01126 -0.517994,0.343448 -0.416647,0.658752 0.118238,0.360342 0.185802,0.743208 0.185802,1.142962 z"
       id="path1-0"
       style="stroke-width:0.0563034" /></g></svg>
