<?xml version="1.0" encoding="UTF-8" standalone="no"?>
<svg
   fill="#1682d4"
   viewBox="0 0 24.001015 7.864192"
   version="1.1"
   id="svg1"
   sodipodi:docname="zenodo.svg"
   width="24.001015"
   height="7.864192"
   inkscape:version="1.4.2 (2aeb623e1d, 2025-05-12)"
   xmlns:inkscape="http://www.inkscape.org/namespaces/inkscape"
   xmlns:sodipodi="http://sodipodi.sourceforge.net/DTD/sodipodi-0.dtd"
   xmlns="http://www.w3.org/2000/svg"
   xmlns:svg="http://www.w3.org/2000/svg">
  <defs
     id="defs1" />
  <sodipodi:namedview
     id="namedview1"
     pagecolor="#ffffff"
     bordercolor="#000000"
     borderopacity="0.25"
     inkscape:showpageshadow="2"
     inkscape:pageopacity="0.0"
     inkscape:pagecheckerboard="0"
     inkscape:deskcolor="#d1d1d1"
     inkscape:zoom="15.333333"
     inkscape:cx="17.641304"
     inkscape:cy="9.4891305"
     inkscape:window-width="1854"
     inkscape:window-height="1131"
     inkscape:window-x="66"
     inkscape:window-y="32"
     inkscape:window-maximized="1"
     inkscape:current-layer="svg1" />
  <path
     d="m 23.828,3.0950859 a 2.2,2.2 0 0 0 -0.467,-0.687 2.15,2.15 0 0 0 -1.524,-0.627 2.1,2.1 0 0 0 -1.207,0.365 2.3,2.3 0 0 0 -0.495,0.454 c -0.06,0.075 -0.125,0.175 -0.163,0.236 a 2.7,2.7 0 0 0 -0.205,0.464 c 0.006,-0.27 0.046,-0.672 0.205,-0.898 V 0.45408588 a 0.43,0.43 0 0 0 -0.137,-0.322 A 0.44,0.44 0 0 0 19.518,8.5881228e-5 0.44,0.44 0 0 0 19.195,0.13208588 a 0.44,0.44 0 0 0 -0.13,0.322 V 2.1870859 a 2.4,2.4 0 0 0 -0.592,-0.299 2.12,2.12 0 0 0 -1.5,0.06 2.16,2.16 0 0 0 -1.153,1.147 l -0.024,0.06 a 2.2,2.2 0 0 0 -0.49,-0.747 2.15,2.15 0 0 0 -1.524,-0.627 2.1,2.1 0 0 0 -0.843,0.167 2.2,2.2 0 0 0 -0.687,0.46 2.1,2.1 0 0 0 -0.465,0.687 l -0.023,0.056 -0.023,-0.056 a 2.155,2.155 0 0 0 -1.9899999,-1.314 q -0.452,0 -0.842,0.167 a 2.2,2.2 0 0 0 -0.686,0.46 q -0.3,0.293 -0.467,0.687 l -0.02,0.053 -0.022,-0.053 a 2.2,2.2 0 0 0 -0.467,-0.687 2.15,2.15 0 0 0 -1.523,-0.627 2.1,2.1 0 0 0 -0.842,0.167 2.2,2.2 0 0 0 -0.642,0.418 v -0.072 a 0.463,0.463 0 0 0 -0.462,-0.463 H 0.53500012 a 0.463,0.463 0 0 0 0,0.926 H 3.0840001 l -2.99299998,4.025 a 0.46,0.46 0 0 0 -0.0909999956578,0.275 v 0.302 c 0,0.256 0.20699999565784,0.463 0.46299999565784,0.463 H 3.9130001 a 0.46,0.46 0 0 0 0.462,-0.43 2.17,2.17 0 0 0 1.347,0.472 q 0.669,0 1.195,-0.36 0.425,-0.287 0.67,-0.72 v 0.626 q 0,0.191 0.13,0.322 a 0.44,0.44 0 0 0 0.324,0.132 q 0.179,0 0.316,-0.132 a 0.43,0.43 0 0 0 0.138,-0.322 v -1.62 h -0.002 l 0.002,-0.003 h -1.134 a 0.44,0.44 0 0 0 -0.418,0.287 l -0.074,0.152 a 1.23,1.23 0 0 1 -0.46,0.532 1.23,1.23 0 0 1 -0.687,0.197 q -0.252,0 -0.485,-0.095 a 1.2,1.2 0 0 1 -0.4,-0.27 1.4,1.4 0 0 1 -0.27,-0.4 1.2,1.2 0 0 1 -0.1,-0.477 v -0.406 h 4.028 v -1.375 a 1.24,1.24 0 0 1 0.365,-0.878 1.24,1.24 0 0 1 0.89,-0.365 q 0.2509999,0 0.4839999,0.095 0.233,0.097 0.4,0.27 0.167,0.173 0.269,0.4 0.102,0.227 0.102,0.478 v 3.477 q 0,0.192 0.13,0.323 a 0.44,0.44 0 0 0 0.324,0.132 q 0.179,0 0.316,-0.132 a 0.43,0.43 0 0 0 0.137,-0.323 v -0.623 a 2.14,2.14 0 0 0 1.867,1.078 q 0.442,0 0.837,-0.168 0.393,-0.166 0.693,-0.46 a 2.1,2.1 0 0 0 0.484,-0.733 l 0.018,0.047 q 0.167,0.392 0.466,0.687 0.3,0.292 0.687,0.46 0.388,0.166 0.843,0.167 a 2.15,2.15 0 0 0 1.523,-0.627 q 0.293,-0.294 0.467,-0.687 l 0.024,-0.06 0.024,0.06 q 0.172,0.392 0.466,0.687 a 2.14,2.14 0 0 0 1.524,0.627 q 0.442,0 0.837,-0.168 a 2.2,2.2 0 0 0 0.693,-0.46 2.12,2.12 0 0 0 0.636,-1.522 v -1.782 a 2.1,2.1 0 0 0 -0.173,-0.837 m -22.6669999,3.802 2.42,-3.259 q -0.019,0.144 -0.02,0.294 v 1.78 q 0,0.443 0.174,0.838 0.081,0.185 0.19,0.347 z m 5.818,-2.5 h -2.51 v -0.465 a 1.24,1.24 0 0 1 0.765,-1.147 q 0.228,-0.096 0.49,-0.096 0.253,0 0.484,0.095 0.235,0.097 0.4,0.27 0.167,0.173 0.27,0.4 0.101,0.227 0.1,0.478 z m 8.0569999,1.316 a 1.25,1.25 0 0 1 -1.254,1.243 q -0.252,0 -0.485,-0.096 a 1.2,1.2 0 0 1 -0.4,-0.27 1.4,1.4 0 0 1 -0.269,-0.4 1.2,1.2 0 0 1 -0.1,-0.477 v -1.781 a 1.24,1.24 0 0 1 1.255,-1.243 q 0.25,0 0.482,0.095 0.235,0.097 0.4,0.27 0.167,0.173 0.27,0.4 0.1,0.228 0.101,0.478 z m 4.028,0 q 0,0.25 -0.1,0.478 a 1.4,1.4 0 0 1 -0.27,0.4 1.2,1.2 0 0 1 -0.4,0.27 1.3,1.3 0 0 1 -0.484,0.094 1.23,1.23 0 0 1 -0.89,-0.364 1.24,1.24 0 0 1 -0.366,-0.878 v -1.781 q 0,-0.25 0.102,-0.478 a 1.4,1.4 0 0 1 0.27,-0.4 1.2,1.2 0 0 1 0.4,-0.27 1.3,1.3 0 0 1 0.484,-0.095 1.25,1.25 0 0 1 0.89,0.365 1.25,1.25 0 0 1 0.364,0.878 z m 4.028,0 a 1.22,1.22 0 0 1 -0.364,0.878 q -0.175,0.173 -0.4,0.27 a 1.3,1.3 0 0 1 -0.49,0.094 1.3,1.3 0 0 1 -0.485,-0.095 1.2,1.2 0 0 1 -0.4,-0.27 1.4,1.4 0 0 1 -0.27,-0.4 1.2,1.2 0 0 1 -0.1,-0.477 v -1.781 a 1.24,1.24 0 0 1 1.255,-1.243 q 0.25,0 0.483,0.095 0.234,0.097 0.4,0.27 0.167,0.173 0.27,0.4 0.1,0.228 0.1,0.478 v 1.78 z"
     id="path1" />
</svg>
